<?xml version="1.0" encoding="utf-8"?>
<!-- Generator: Adobe Illustrator 24.0.2, SVG Export Plug-In . SVG Version: 6.00 Build 0)  -->
<svg version="1.1" id="Calque_1" xmlns="http://www.w3.org/2000/svg" xmlns:xlink="http://www.w3.org/1999/xlink" x="0px" y="0px"
	 viewBox="0 0 419.5 419.5" style="enable-background:new 0 0 419.5 419.5;" xml:space="preserve">
<style type="text/css">
	.st0{fill:#020203;}
	.st1{fill:none;}
</style>
<circle class="st0" cx="143.9" cy="290.4" r="57.4"/>
<ellipse transform="matrix(0.7071 -0.7071 0.7071 0.7071 -124.7404 279.5709)" class="st0" cx="275.1" cy="290.4" rx="57.4" ry="57.4"/>
<g>
	<rect x="106.5" y="177.3" class="st1" width="206" height="24.7"/>
	<path class="st0" d="M394.7,201.9h-62.2v-24.7v-20v-40.4c0-22-17.9-39.9-39.9-39.9H126.4c-22,0-39.9,17.9-39.9,39.9v40.4v20v24.7
		H24.4c-5.5,0-10,4.5-10,10s4.5,10,10,10h62.2h246h62.2c5.5,0,10-4.5,10-10S400.2,201.9,394.7,201.9z M106.5,201.9v-24.7h206v24.7
		H106.5z"/>
</g>
</svg>
